# xmcd CD database file
#
# Track frame offsets:
#	180
#	13888
#	32583
#	50735
#	67088
#	85252
#	97123
#	107880
#	120665
#	131179
#	144192
#	154561
#	166144
#	176142
#
# Disc length: 2548 seconds
#
# Revision: 0
# Processed by: cddbd v1.5.2PL0 Copyright (c) Steve Scherf et al.
# Submitted via: CDex 1.70beta2
#
DISCID=c309f20e
DTITLE=Big Walter - Vintage Thunderbird
DYEAR=1971
DGENRE=Blues
TTITLE0=I Don't Know
TTITLE1=Walking Across Texas
TTITLE2=Bloodstains On The Wall
TTITLE3=If Blues Was Money [I'd Be A Millionaire]
TTITLE4=Nobody Loves Me
TTITLE5=Calling Margie
TTITLE6=Junior Jumped In
TTITLE7=You're Never Too Old
TTITLE8=Six Weeks Of Misery
TTITLE9=Tequilas And Margueritas
TTITLE10=Wanta Be Your Chauffeur
TTITLE11=Long Way To Go
TTITLE12=It Had To Be
TTITLE13=Life's Highway
EXTD=YEAR: 1971
EXTT0=
EXTT1=
EXTT2=
EXTT3=
EXTT4=
EXTT5=
EXTT6=
EXTT7=
EXTT8=
EXTT9=
EXTT10=
EXTT11=
EXTT12=
EXTT13=
PLAYORDER=
